<?xml version="1.0" encoding="UTF-8"?>
<svg version="1.1" xmlns="http://www.w3.org/2000/svg" width="80" height="80">
<path d="M0 0 C26.4 0 52.8 0 80 0 C80 26.4 80 52.8 80 80 C53.6 80 27.2 80 0 80 C0 53.6 0 27.2 0 0 Z " fill="#DEDEDE" transform="translate(0,0)"/>
<path d="M0 0 C26.4 0 52.8 0 80 0 C80 26.4 80 52.8 80 80 C53.6 80 27.2 80 0 80 C0 53.6 0 27.2 0 0 Z M24 10 C22.453125 10.86625 22.453125 10.86625 20.875 11.75 C13.61408457 17.43245555 8.90326679 24.29019963 6 33 C5.14977571 43.88941105 7.33207122 51.81404646 13 61 C13.66 61 14.32 61 15 61 C15.25136719 61.59554687 15.50273437 62.19109375 15.76171875 62.8046875 C17.16173884 65.28674204 18.52188897 66.4519342 20.8125 68.125 C21.47894531 68.62257812 22.14539063 69.12015625 22.83203125 69.6328125 C28.44595586 73.17312532 33.32407864 73.36545118 39.8125 73.375 C40.67681641 73.39949219 41.54113281 73.42398438 42.43164062 73.44921875 C48.69086202 73.47756239 52.60360841 72.17139854 58 69 C57.75443359 67.94232422 57.75443359 67.94232422 57.50390625 66.86328125 C56.98300176 63.90341312 56.90133268 61.18938727 56.9375 58.1875 C56.94652344 57.21167969 56.95554688 56.23585937 56.96484375 55.23046875 C56.97644531 54.49441406 56.98804688 53.75835937 57 53 C57.99 53.33 58.98 53.66 60 54 C60 57.96 60 61.92 60 66 C66.72831634 62.63584183 70.29796622 56.87429183 73 50 C75.28877464 40.7387993 74.77128608 32.28348278 70 24 C69.4225 22.96875 68.845 21.9375 68.25 20.875 C61.93765647 12.80922771 53.84952504 6.87147975 43.5 5.5546875 C36.08984073 5.31513494 30.3734367 6.19180546 24 10 Z " fill="#020202" transform="translate(0,0)"/>
<path d="M0 0 C0.66 2.31 1.32 4.62 2 7 C1.21625 7.4125 0.4325 7.825 -0.375 8.25 C-3.27709281 10.18472854 -3.83518849 10.79676835 -5 14 C-5.29590824 16.78042086 -5.50647019 19.46483032 -5.625 22.25 C-5.810625 26.08625 -5.810625 26.08625 -6 30 C-11.94 30 -17.88 30 -24 30 C-24.09765625 19.16015625 -24.09765625 19.16015625 -24 16 C-23.67 15.67 -23.34 15.34 -23 15 C-24.65 15 -26.3 15 -28 15 C-27.67 15.33 -27.34 15.66 -27 16 C-26.87429773 18.38986682 -26.81137305 20.74927176 -26.796875 23.140625 C-26.79117493 23.85982117 -26.78547485 24.57901733 -26.77960205 25.32000732 C-26.77013639 26.84662397 -26.76361188 28.3732612 -26.75976562 29.89990234 C-26.75009721 32.22660574 -26.71910595 34.55241183 -26.6875 36.87890625 C-26.68096631 38.36197392 -26.67571728 39.84504792 -26.671875 41.328125 C-26.6595282 42.02101624 -26.6471814 42.71390747 -26.63446045 43.42779541 C-26.65443082 47.80023483 -27.41496948 50.46968439 -30 54 C-33 53 -33 53 -34.3515625 50.890625 C-34.98191406 49.58351563 -34.98191406 49.58351563 -35.625 48.25 C-36.05039062 47.38890625 -36.47578125 46.5278125 -36.9140625 45.640625 C-39.70703209 38.84908744 -40.31957157 30.49885023 -38.24609375 23.4296875 C-37.28064104 21.19589496 -36.2141271 19.10785956 -35 17 C-34.4225 15.96875 -33.845 14.9375 -33.25 13.875 C-28.59147387 7.92243884 -22.4099902 1.97019784 -14.875 0.3125 C-9.90731698 -0.0881196 -4.98054562 -0.0810577 0 0 Z " fill="#DFDFDF" transform="translate(45,7)"/>
<path d="M0 0 C0.66 0.33 1.32 0.66 2 1 C1.01 2.485 1.01 2.485 0 4 C-0.30066154 6.75417318 -0.50925299 9.42645147 -0.625 12.1875 C-0.66367187 12.93708984 -0.70234375 13.68667969 -0.7421875 14.45898438 C-0.83628216 16.30559199 -0.91922319 18.1527619 -1 20 C0.23878906 19.97035156 1.47757813 19.94070312 2.75390625 19.91015625 C7.2288348 19.91114257 11.67075206 20.67075206 15 24 C15.04080783 25.99958364 15.04254356 28.00045254 15 30 C14.401875 29.21625 13.80375 28.4325 13.1875 27.625 C10.91616732 24.89940078 9.29279741 23.23667794 5.73828125 22.5859375 C3.4921875 22.390625 1.24609375 22.1953125 -1 22 C-0.505 30.415 -0.505 30.415 0 39 C-1.98 39 -3.96 39 -6 39 C-6 34.38 -6 29.76 -6 25 C-10.65559816 30.8194977 -10.61391856 32.84092835 -10.390625 39.890625 C-9.85573249 44.14836938 -8.97710405 45.94019861 -6 49 C0.01980506 52.64455838 7.36258544 51.12977269 14 50 C14 51.32 14 52.64 14 54 C7.83135188 57.58294458 3.22378133 58.68471815 -3.875 58.5625 C-4.75615479 58.55371826 -5.63730957 58.54493652 -6.54516602 58.53588867 C-13.296672 58.32410367 -18.54145206 57.18565126 -24 53 C-24.57234375 52.58105469 -25.1446875 52.16210938 -25.734375 51.73046875 C-27.1875 50.5 -27.1875 50.5 -29 48 C-28.86863344 45.175619 -28.25262369 43.50524739 -27 41 C-26.90138542 38.54245026 -26.86013334 36.1139047 -26.8671875 33.65625 C-26.86623077 32.93135376 -26.86527405 32.20645752 -26.86428833 31.45959473 C-26.86360757 29.92635003 -26.86545464 28.39310245 -26.86962891 26.85986328 C-26.87497866 24.50937442 -26.86968047 22.15907665 -26.86328125 19.80859375 C-26.86394205 18.32031208 -26.86522325 16.83203052 -26.8671875 15.34375 C-26.86516327 14.63851196 -26.86313904 13.93327393 -26.86105347 13.20666504 C-26.82505258 9.47870629 -26.82505258 9.47870629 -28 6 C-25.69 6 -23.38 6 -21 6 C-21.33 6.66 -21.66 7.32 -22 8 C-22.23029956 10.37123246 -22.41119942 12.74741943 -22.5625 15.125 C-22.706875 17.39375 -22.85125 19.6625 -23 22 C-17.06 22 -11.12 22 -5 22 C-5.11802595 16.95909036 -5.11802595 16.95909036 -5.27026367 11.91918945 C-5.32344113 7.39681855 -4.81674253 4.56696451 -2 1 C-1.34 0.67 -0.68 0.34 0 0 Z " fill="#262626" transform="translate(44,15)"/>
<path d="M0 0 C4.29 0 8.58 0 13 0 C12.34 0.928125 11.68 1.85625 11 2.8125 C8.21974607 7.69780333 8.20486751 12.52518152 9 18 C11.42732684 23.46148539 15.57022417 26.69135444 21 29 C26.5098877 30.03577346 31.71013296 28.51139058 37 27 C37 27.99 37 28.98 37 30 C30.83135188 33.58294458 26.22378133 34.68471815 19.125 34.5625 C18.24384521 34.55371826 17.36269043 34.54493652 16.45483398 34.53588867 C8.04040551 34.27194019 2.09210756 32.03564559 -4.125 26.3125 C-6 24 -6 24 -6 22 C-5.19175781 21.31550781 -4.38351563 20.63101563 -3.55078125 19.92578125 C-0.13871779 16.01209744 -0.22542138 13.21419024 -0.1875 8.1875 C-0.16236328 7.39923828 -0.13722656 6.61097656 -0.11132812 5.79882812 C-0.05277019 3.86641627 -0.02344512 1.93315673 0 0 Z " fill="#DDDDDD" transform="translate(21,39)"/>
<path d="M0 0 C3.96 0.33 7.92 0.66 12 1 C12 1.66 12 2.32 12 3 C9.36 3 6.72 3 4 3 C4.33 3.33 4.66 3.66 5 4 C5.12570227 6.38986682 5.18862695 8.74927176 5.203125 11.140625 C5.20882507 11.85982117 5.21452515 12.57901733 5.22039795 13.32000732 C5.22986361 14.84662397 5.23638812 16.3732612 5.24023438 17.89990234 C5.24990279 20.22660574 5.28089405 22.55241183 5.3125 24.87890625 C5.31903369 26.36197392 5.32428272 27.84504792 5.328125 29.328125 C5.3404718 30.02101624 5.3528186 30.71390747 5.36553955 31.42779541 C5.34556918 35.80023483 4.58503052 38.46968439 2 42 C-1 41 -1 41 -2.3515625 38.890625 C-2.98191406 37.58351563 -2.98191406 37.58351563 -3.625 36.25 C-4.05039063 35.38890625 -4.47578125 34.5278125 -4.9140625 33.640625 C-7.70756913 26.84778153 -8.34800463 18.45108459 -6.2109375 11.39453125 C-4.44414123 7.36866341 -2.26999058 3.78331764 0 0 Z " fill="#D3D3D3" transform="translate(13,19)"/>
<path d="M0 0 C2.31 0 4.62 0 7 0 C6.67 0.66 6.34 1.32 6 2 C5.89193644 4.42036333 5.8387085 6.81712713 5.82421875 9.23828125 C5.80101531 10.71290482 5.77689776 12.18751423 5.75195312 13.66210938 C5.7168799 15.98601683 5.6875179 18.30940535 5.67407227 20.63354492 C5.65855109 22.87742999 5.61831495 25.11979912 5.57421875 27.36328125 C5.57612717 28.05303543 5.57803558 28.74278961 5.58000183 29.45344543 C5.45989269 34.21567202 4.29996943 36.60158524 1 40 C0.34 39.67 -0.32 39.34 -1 39 C-0.67475342 38.49549316 -0.34950684 37.99098633 -0.0144043 37.47119141 C1.35368615 34.13838479 1.26710017 31.00358365 1.23046875 27.4609375 C1.23001053 26.73887115 1.22955231 26.01680481 1.2290802 25.27285767 C1.226067 23.75154978 1.21820863 22.23024473 1.20581055 20.70898438 C1.18750935 18.37619146 1.18530131 16.04379485 1.18554688 13.7109375 C1.18063292 12.23176739 1.17480514 10.75259997 1.16796875 9.2734375 C1.16685593 8.57447357 1.1657431 7.87550964 1.16459656 7.15536499 C1.17668767 3.45340123 1.17668767 3.45340123 0 0 Z " fill="#111111" transform="translate(16,21)"/>
<path d="M0 0 C0.02578125 0.94101562 0.0515625 1.88203125 0.078125 2.8515625 C0.26493612 12.3027606 0.26493612 12.3027606 5 20 C11.0234779 23.64180986 18.3599471 22.13022177 25 21 C21.58543707 24.41456293 17.82814161 24.90650014 13.125 25.4375 C8.20335707 25.30550191 4.73915996 23.05102187 1 20 C-2.88274782 15.71902163 -4.15947879 13.23300983 -4.25 7.5 C-4.27578125 6.5203125 -4.3015625 5.540625 -4.328125 4.53125 C-4.21984375 3.6959375 -4.1115625 2.860625 -4 2 C-1 0 -1 0 0 0 Z " fill="#212121" transform="translate(33,44)"/>
<path d="M0 0 C0 4.62 0 9.24 0 14 C-1.32 14 -2.64 14 -4 14 C-4.66 14.66 -5.32 15.32 -6 16 C-6.8610401 6.31808242 -6.8610401 6.31808242 -3.5625 2.375 C-1 0 -1 0 0 0 Z " fill="#DFDFDF" transform="translate(39,39)"/>
<path d="M0 0 C0.33 0 0.66 0 1 0 C1 4.62 1 9.24 1 14 C2.175625 13.938125 3.35125 13.87625 4.5625 13.8125 C9.05571872 13.7965099 12.01928857 14.96902478 16 17 C17 18 17 18 17.0625 21.0625 C17.041875 22.031875 17.02125 23.00125 17 24 C16.401875 23.21625 15.80375 22.4325 15.1875 21.625 C12.03138075 17.83765691 9.53267845 16.73321426 4.8125 15.875 C2.4303125 15.441875 2.4303125 15.441875 0 15 C0 10.05 0 5.1 0 0 Z " fill="#4D4D4D" transform="translate(42,21)"/>
<path d="M0 0 C0.99 0 1.98 0 3 0 C3 0.66 3 1.32 3 2 C4.32 2 5.64 2 7 2 C9.61281488 7.87883349 9.18328202 13.70731728 9 20 C8.67 20 8.34 20 8 20 C8 16.7 8 13.4 8 10 C6.35 10.33 4.7 10.66 3 11 C3.0928125 9.329375 3.0928125 9.329375 3.1875 7.625 C3.125625 6.42875 3.06375 5.2325 3 4 C2.01 3.34 1.02 2.68 0 2 C0 1.34 0 0.68 0 0 Z " fill="#ABABAB" transform="translate(65,25)"/>
<path d="M0 0 C1.85625 -0.00773438 1.85625 -0.00773438 3.75 -0.015625 C7 0.25 7 0.25 10 2.25 C9.01 2.25 8.02 2.25 7 2.25 C7.33 3.57 7.66 4.89 8 6.25 C7.01 5.92 6.02 5.59 5 5.25 C5 3.93 5 2.61 5 1.25 C0.05 1.58 -4.9 1.91 -10 2.25 C-6.32077133 -0.20281911 -4.37740649 -0.01823919 0 0 Z " fill="#8C8C8C" transform="translate(40,5.75)"/>
<path d="M0 0 C3.75376152 1.25125384 4.24073289 2.5652404 6 6 C6 6.66 6 7.32 6 8 C5.01 8 4.02 8 3 8 C3 7.34 3 6.68 3 6 C2.34 6 1.68 6 1 6 C1 5.34 1 4.68 1 4 C0.01 4 -0.98 4 -2 4 C-1.34 2.68 -0.68 1.36 0 0 Z " fill="#C6C6C6" transform="translate(65,19)"/>
<path d="M0 0 C0 0.99 0 1.98 0 3 C-2.31 3.33 -4.62 3.66 -7 4 C-7.33 2.68 -7.66 1.36 -8 0 C-5.13822943 -1.43088528 -3.06624227 -0.59991697 0 0 Z " fill="#B4B4B4" transform="translate(33,9)"/>
<path d="M0 0 C1.32 0.66 2.64 1.32 4 2 C3.67 2.99 3.34 3.98 3 5 C3.66 5.33 4.32 5.66 5 6 C4.67 6.66 4.34 7.32 4 8 C3.34 8 2.68 8 2 8 C1.67 6.68 1.34 5.36 1 4 C0.01 4 -0.98 4 -2 4 C-1.34 2.68 -0.68 1.36 0 0 Z " fill="#B3B3B3" transform="translate(58,12)"/>
<path d="M0 0 C5.94 0.99 5.94 0.99 12 2 C12 2.33 12 2.66 12 3 C11.31292969 3.04898438 10.62585937 3.09796875 9.91796875 3.1484375 C8.56638672 3.26058594 8.56638672 3.26058594 7.1875 3.375 C6.29417969 3.44460937 5.40085937 3.51421875 4.48046875 3.5859375 C1.75601501 3.86645036 1.75601501 3.86645036 -1 6 C-0.67 4.02 -0.34 2.04 0 0 Z " fill="#A7A7A7" transform="translate(34,52)"/>
<path d="M0 0 C0 0.99 0 1.98 0 3 C-1.65 3.66 -3.3 4.32 -5 5 C-5.99 4.01 -6.98 3.02 -8 2 C-2.25 0 -2.25 0 0 0 Z " fill="#D0D0D0" transform="translate(58,66)"/>
<path d="M0 0 C3.875 0.875 3.875 0.875 5 2 C5.04080783 3.99958364 5.04254356 6.00045254 5 8 C2.74754119 5.31158141 1.11786042 3.35358125 0 0 Z " fill="#434343" transform="translate(54,37)"/>
</svg>
